Coordinates
version=1
nRows=24
nColumns=24
inDegrees=yes

Units are S.I. units (second, meters, Newtons, ...)
Angles are in degrees.

endheader
time	pelvis_tilt	pelvis_list	pelvis_rotation	pelvis_tx	pelvis_ty	pelvis_tz	hip_flexion_r	hip_adduction_r	hip_rotation_r	knee_angle_r	ankle_angle_r	subtalar_angle_r	mtp_angle_r	hip_flexion_l	hip_adduction_l	hip_rotation_l	knee_angle_l	ankle_angle_l	subtalar_angle_l	mtp_angle_l	lumbar_extension	lumbar_bending	lumbar_rotation
      4.68000000	    -10.32944066	      2.48322572	     -1.02234300	     -1.85989387	     -0.01074831	      0.45308114	     35.13119385	     -3.00771778	     -4.34168095	    -46.09436060	    -12.86932786	    -14.72715946	     11.04363002	      5.30230517	      5.55781058	     13.01624703	     -8.42807503	      2.41200602	      2.12629547	      6.45058845	      6.83691913	     -2.00594326	     -1.74734506
      4.68500000	    -10.40197824	      2.39693204	     -0.78587075	     -1.85443821	     -0.01106366	      0.45329046	     35.36630853	     -3.05614481	     -4.60024919	    -44.31870616	    -12.33585457	    -14.00703761	     11.13933993	      4.85538789	      5.44553012	     13.09746305	     -8.15482076	      2.56362261	      2.24728070	      6.45895621	      6.82810941	     -1.99297655	     -1.92384328
      4.69000000	    -10.49008675	      2.30559566	     -0.56113980	     -1.84896839	     -0.01140620	      0.45351893	     35.56935818	     -3.09337266	     -4.84366796	    -42.44903885	    -11.80483402	    -13.20230607	     11.28079349	      4.43370436	      5.32595999	     13.13347645	     -7.89633944	      2.70824571	      2.37580589	      6.47417467	      6.83846369	     -1.96962937	     -2.08085066
      4.69500000	    -10.57480021	      2.21776676	     -0.32845931	     -1.84348664	     -0.01176157	      0.45373822	     35.71927687	     -3.14175852	     -5.08271017	    -40.49670369	    -11.25132622	    -12.28930182	     11.46193070	      4.01816023	      5.21091753	     13.14197878	     -7.65484047	      2.84943967	      2.52662292	      6.50010151	      6.84344133	     -1.95228000	     -2.23921311
      4.70000000	    -10.62712819	      2.13473453	     -0.07202774	     -1.83803989	     -0.01208948	      0.45396183	     35.78428240	     -3.20759458	     -5.31568376	    -38.46898352	    -10.65290111	    -11.22593676	     11.66261187	      3.59430463	      5.10474609	     13.10295640	     -7.45403428	      2.98453366	      2.70007962	      6.53302704	      6.80545220	     -1.94914042	     -2.45581530
      4.70500000	    -10.70511603	      2.04400178	      0.15996672	     -1.83252059	     -0.01247141	      0.45422587	     35.82726879	     -3.24799445	     -5.51569249	    -36.36747111	    -10.08382937	    -10.12794528	     11.85415250	      3.19270199	      4.98160922	     13.07274539	     -7.25453776	      3.13066700	      2.88643156	      6.58235356	      6.80679472	     -1.93239617	     -2.59892881
      4.71000000	    -10.78506738	      1.95465076	      0.38464218	     -1.82696333	     -0.01287165	      0.45448408	     35.82558752	     -3.28734517	     -5.69236545	    -34.20393536	     -9.54343004	     -8.97637426	     12.04071721	      2.80273091	      4.85960490	     13.03114288	     -7.07804874	      3.27138833	      3.08614537	      6.64723867	      6.81654184	     -1.90836671	     -2.72614218
      4.71500000	    -10.84777007	      1.86881323	      0.62301558	     -1.82138123	     -0.01327378	      0.45477100	     35.75793244	     -3.33764991	     -5.86615570	    -31.99235476	     -9.00921223	     -7.76420921	     12.21819775	      2.40939032	      4.73850493	     12.97767228	     -6.92937844	      3.41243200	      3.30203003	      6.73115603	      6.80854655	     -1.90161392	     -2.86023952
      4.72000000	    -10.95894920	      1.77249749	      0.81622658	     -1.81568688	     -0.01374278	      0.45510859	     35.70365722	     -3.35306257	     -6.01407286	    -29.74156402	     -8.59316265	     -6.60315239	     12.36277619	      2.05506513	      4.59788243	     12.93061100	     -6.77034975	      3.52933372	      3.49963959	      6.81145000	      6.87327097	     -1.87168059	     -2.89800084
      4.72500000	    -10.95196715	      1.70855995	      1.09216296	     -1.81005737	     -0.01411780	      0.45532730	     35.47350654	     -3.45558057	     -6.18971256	    -27.47415766	     -8.06880768	     -5.33305677	     12.47887971	      1.63243641	      4.50802422	     12.86811306	     -6.71450293	      3.66975891	      3.74961855	      6.93746852	      6.79365657	     -1.88303949	     -3.09591931
      4.73000000	    -11.01711684	      1.62155967	      1.29590658	     -1.80428049	     -0.01458118	      0.45563485	     35.29421217	     -3.49714220	     -6.35166922	    -25.20057263	     -7.72033535	     -4.15582276	     12.52461905	      1.26070154	      4.37893469	     12.83380830	     -6.62895292	      3.78246134	      3.96634111	      7.03955161	      6.82252963	     -1.85563829	     -3.14384459
      4.73500000	    -11.05144181	      1.54657219	      1.52775183	     -1.79849071	     -0.01505159	      0.45592783	     35.04497696	     -3.56597000	     -6.51769940	    -22.93425332	     -7.36351243	     -3.00529216	     12.54207059	      0.89056480	      4.26710399	     12.81031593	     -6.61428371	      3.91158128	      4.18231981	      7.16506875	      6.81438605	     -1.84383348	     -3.22438392
      4.74000000	    -10.95854537	      1.50205102	      1.83182121	     -1.79270811	     -0.01539459	      0.45615225	     34.63015899	     -3.71032782	     -6.77955957	    -20.71882453	     -6.95467137	     -1.84460267	     12.41215295	      0.41493082	      4.18834273	     12.79242189	     -6.65315932	      4.03239166	      4.46192247	      7.30587601	      6.66493876	     -1.87267403	     -3.43733668
      4.74500000	    -10.93811797	      1.43725682	      2.07723431	     -1.78676912	     -0.01584298	      0.45642151	     34.27785158	     -3.80483491	     -7.05553959	    -18.54678804	     -6.65916362	     -0.76813111	     12.27540867	      0.00916644	      4.08439084	     12.77297474	     -6.69964521	      4.13620194	      4.69406196	      7.43337261	      6.62413943	     -1.86085221	     -3.54739002
      4.75000000	    -10.87951988	      1.38828257	      2.33849498	     -1.78081765	     -0.01627671	      0.45672467	     33.87624610	     -3.91561143	     -7.34435047	    -16.45810600	     -6.38109468	      0.25367446	     12.05074416	     -0.41927036	      3.98822983	     12.81302885	     -6.78731462	      4.24913612	      4.95149936	      7.57531759	      6.54232650	     -1.87184086	     -3.65266095
      4.75500000	    -10.86820264	      1.31659905	      2.57968942	     -1.77474715	     -0.01677720	      0.45705659	     33.52030197	     -3.99172122	     -7.69166332	    -14.45195069	     -6.19879097	      1.17771907	     11.86155349	     -0.78597541	      3.86762304	     12.83180767	     -6.90583884	      4.34956190	      5.18934713	      7.72905164	      6.53480076	     -1.85029380	     -3.73949001
      4.76000000	    -10.78478311	      1.27529432	      2.85926727	     -1.76868684	     -0.01721339	      0.45739175	     33.08782622	     -4.10651811	     -8.05323029	    -12.56667546	     -5.99690810	      2.05219286	     11.60822119	     -1.19837261	      3.77271707	     12.86721978	     -7.08275209	      4.44656851	      5.47968852	      7.91484723	      6.44594449	     -1.86839152	     -3.88891938
      4.76500000	    -10.71733181	      1.22112571	      3.11256892	     -1.76253849	     -0.01767953	      0.45778330	     32.68358897	     -4.18398505	     -8.41003808	    -10.81387000	     -5.85572047	      2.83707941	     11.32061935	     -1.58190249	      3.65869947	     12.89471622	     -7.29108215	      4.53642396	      5.76889535	      8.11388314	      6.39095016	     -1.86686698	     -4.00391924
      4.77000000	    -10.64911623	      1.17076305	      3.36665202	     -1.75635362	     -0.01815019	      0.45820915	     32.29283292	     -4.25414746	     -8.74355732	     -9.20877837	     -5.75849745	      3.52404834	     11.02943030	     -1.94103452	      3.54340691	     12.92189754	     -7.54822472	      4.62257396	      6.09054662	      8.35026388	      6.34264903	     -1.87022474	     -4.12455662
      4.77500000	    -10.58460191	      1.10763838	      3.60691119	     -1.75010365	     -0.01862493	      0.45867340	     31.92129617	     -4.29421060	     -9.04032725	     -7.76034177	     -5.70966698	      4.11676025	     10.74349643	     -2.27499903	      3.40951630	     12.93452350	     -7.84808483	      4.70664862	      6.43996902	      8.62511967	      6.31036985	     -1.85634951	     -4.23327504
      4.78000000	    -10.52668482	      1.03768089	      3.83997982	     -1.74381076	     -0.01909959	      0.45917533	     31.57523951	     -4.31451753	     -9.27853351	     -6.48020945	     -5.70930736	      4.60332581	     10.47294674	     -2.57568639	      3.26328088	     12.94201219	     -8.19640111	      4.78463915	      6.82011226	      8.94089184	      6.29509869	     -1.83419921	     -4.34027430
      4.78500000	    -10.47783376	      0.95019313	      4.07072390	     -1.73744068	     -0.01958112	      0.45968203	     31.25149828	     -4.31146241	     -9.44274170	     -5.37238759	     -5.72583596	      4.99041867	     10.23008164	     -2.84105694	      3.09608564	     12.94293654	     -8.59479181	      4.85881332	      7.22462902	      9.29943460	      6.30679674	     -1.78966437	     -4.45305170
      4.79000000	    -10.42100618	      0.85582331	      4.27540470	     -1.73107122	     -0.02002213	      0.46024754	     30.95028143	     -4.28229538	     -9.55451068	     -4.45569689	     -5.80397864	      5.32596758	      9.99604370	     -3.08878514	      2.91457822	     12.92428604	     -9.03366083	      4.91653524	      7.67680190	      9.71303376	      6.30840999	     -1.73662409	     -4.54566990
      4.79500000	    -10.38050583	      0.74802986	      4.47998977	     -1.72462726	     -0.02047295	      0.46081508	     30.68055750	     -4.23998169	     -9.57757602	     -3.72487407	     -5.86638172	      5.59378575	      9.79839582	     -3.29395723	      2.71806891	     12.90993993	     -9.52038084	      4.96064065	      8.13715172	     10.16172745	      6.34375238	     -1.66780667	     -4.65016848
